<svg xmlns="http://www.w3.org/2000/svg" viewBox="0 0 512 512" width="512" height="512"><rect width="512" height="512" rx="0" fill="#f3efe6"/><g transform="translate(0 0) scale(1)"><defs><clipPath id="b0"><rect x="70" y="362" width="72" height="58" rx="22"/></clipPath><clipPath id="b1"><rect x="170" y="290" width="72" height="130" rx="22"/></clipPath><clipPath id="b2"><rect x="270" y="196" width="72" height="224" rx="22"/></clipPath><clipPath id="b3"><rect x="370" y="78" width="72" height="342" rx="22"/></clipPath></defs><g clip-path="url(#b0)"><rect x="70" y="362" width="72" height="11" fill="#d9692f"/><rect x="70" y="372" width="72" height="48" fill="#7f8ba0"/></g><g clip-path="url(#b1)"><rect x="170" y="290" width="72" height="35" fill="#d9692f"/><rect x="170" y="324" width="72" height="96" fill="#7f8ba0"/></g><g clip-path="url(#b2)"><rect x="270" y="196" width="72" height="81" fill="#d9692f"/><rect x="270" y="276" width="72" height="144" fill="#7f8ba0"/></g><g clip-path="url(#b3)"><rect x="370" y="78" width="72" height="151" fill="#d9692f"/><rect x="370" y="228" width="72" height="192" fill="#7f8ba0"/></g></g></svg>
